<svg id="Layer_1" data-name="Layer 1" xmlns="http://www.w3.org/2000/svg" viewBox="0 0 93.18 93.19"><defs><style>.cls-1{fill:#40896c;}</style></defs><path id="Icon_awesome-book-reader" data-name="Icon awesome-book-reader" class="cls-1" d="M117.47,70.87A17.47,17.47,0,1,0,100,88.35a17.47,17.47,0,0,0,17.47-17.48ZM95.92,97.28c-10.8-6.61-28.28-8.42-37.08-8.93A5,5,0,0,0,53.43,93c0,.1,0,.2,0,.3v40.55a5,5,0,0,0,4.82,4.93c8,.41,24,1.94,35.13,7.54a2.54,2.54,0,0,0,3.43-1,2.47,2.47,0,0,0,.3-1.12V99.37a2.41,2.41,0,0,0-1.17-2.09Zm45.25-8.93c-8.8.5-26.29,2.32-37.09,8.93a2.48,2.48,0,0,0-1.17,2.12v44.73a2.53,2.53,0,0,0,2.62,2.46,2.59,2.59,0,0,0,1.12-.29c11.11-5.6,27.17-7.12,35.12-7.54a5,5,0,0,0,4.82-4.92V93.28a5,5,0,0,0-5.13-4.94Z" transform="translate(-53.41 -53.4)"/></svg>