<svg id="Layer_1" data-name="Layer 1" xmlns="http://www.w3.org/2000/svg" viewBox="0 0 119.58 95.66"><defs><style>.cls-1{fill:#b13396;}</style></defs><path id="Icon_awesome-chalkboard-teacher" data-name="Icon awesome-chalkboard-teacher" class="cls-1" d="M78.78,115.67a4.59,4.59,0,0,0-1.32.2,23.33,23.33,0,0,1-15.3,0,4.48,4.48,0,0,0-1.31-.2A20.93,20.93,0,0,0,39.92,136.6v.11a9,9,0,0,0,9,8.86H90.74a9,9,0,0,0,9-8.86,20.94,20.94,0,0,0-20.81-21Zm-9-6A17.94,17.94,0,1,0,51.88,91.76h0a17.93,17.93,0,0,0,17.93,17.93ZM150.53,49.9H78.78a9.13,9.13,0,0,0-9,9.27v8.67a23.52,23.52,0,0,1,12,3.33v-9.3h65.77v53.81h-12v-12H111.67v12H97.42a23.84,23.84,0,0,1,7.42,12h45.69a9.13,9.13,0,0,0,9-9.26V59.17A9.14,9.14,0,0,0,150.53,49.9Z" transform="translate(-39.92 -49.9)"/></svg>