<svg xmlns="http://www.w3.org/2000/svg" viewBox="0 0 864.35 867.85"><defs><style>.cls-1{fill:none;stroke:#fff;stroke-miterlimit:10;stroke-width:33px;}.cls-2{fill:#fff;}</style></defs><g id="Layer_1" data-name="Layer 1"><rect class="cls-1" x="16.5" y="16.5" width="831.35" height="831.35"/></g><g id="Layer_2" data-name="Layer 2"><polygon class="cls-2" points="601.5 516.19 745.71 516.19 745.71 386.25 601.5 386.25 601.5 306.74 613.54 279.87 634.69 257.86 658.13 247.86 672.42 245.57 745.71 245.57 745.71 112.94 625.83 112.94 592.96 117.8 562.37 129.81 539.22 141.53 516.92 160.39 499.2 182.4 482.91 210.13 476.62 231.28 467.76 255.58 464.04 276.44 458.91 295.02 458.91 386.21 363.14 386.21 363.14 516.19 457.75 516.19 458.91 867.85 601.29 867.85 601.5 516.19"/></g></svg>