<svg id="Layer_1" data-name="Layer 1" xmlns="http://www.w3.org/2000/svg" viewBox="0 0 116.48 93.18"><defs><style>.cls-1{fill:#4d92af;}</style></defs><path id="Icon_awesome-laptop-code" data-name="Icon awesome-laptop-code" class="cls-1" d="M88.18,103.6a2.92,2.92,0,0,0,4.11,0h0l2.06-2.06a2.91,2.91,0,0,0,0-4.12h0l-6.5-6.5,6.5-6.5a2.91,2.91,0,0,0,0-4.12h0l-2.06-2.06a2.91,2.91,0,0,0-4.11,0h0L77.56,88.86a2.91,2.91,0,0,0,0,4.12h0Zm17.47-2.06,2.06,2.06a2.9,2.9,0,0,0,4.11,0h0L122.44,93a2.91,2.91,0,0,0,0-4.12h0L111.83,78.24a2.93,2.93,0,0,0-4.12,0h0l-2.06,2.06a2.91,2.91,0,0,0,0,4.12h0l6.5,6.5-6.5,6.5a2.91,2.91,0,0,0,0,4.12Zm49.68,30.15H111.2a5.75,5.75,0,0,1-5.65,5.83H94.18a6.17,6.17,0,0,1-6-5.82H44.67a2.92,2.92,0,0,0-2.91,2.91v2.91a11.68,11.68,0,0,0,11.65,11.65h93.18a11.68,11.68,0,0,0,11.65-11.65V134.6A2.92,2.92,0,0,0,155.33,131.69Zm-8.74-67A8.75,8.75,0,0,0,137.85,56H62.14a8.75,8.75,0,0,0-8.73,8.73v61.15h93.18Zm-11.65,49.5H65.06V67.63h69.88Z" transform="translate(-41.76 -55.98)"/></svg>